<?xml version="1.0" standalone="no"?>
<!DOCTYPE svg PUBLIC "-//W3C//DTD SVG 20010904//EN"
 "http://www.w3.org/TR/2001/REC-SVG-20010904/DTD/svg10.dtd">
<svg version="1.0" xmlns="http://www.w3.org/2000/svg"
 width="300.000000pt" height="300.000000pt" viewBox="0 0 300.000000 300.000000"
 preserveAspectRatio="xMidYMid meet">
<metadata>
Created by potrace 1.15, written by Peter Selinger 2001-2017
</metadata>
<g transform="translate(0.000000,300.000000) scale(0.100000,-0.100000)"
fill="#000000" stroke="none">
<path d="M120 2980 c-20 -20 -20 -33 -20 -1359 0 -1261 1 -1340 18 -1359 9
-11 114 -74 233 -141 l215 -121 1147 0 c1134 0 1147 0 1167 20 20 20 20 33 20
1360 0 1565 19 1380 -140 1380 l-100 0 0 40 c0 62 -24 80 -110 80 l-70 0 0 43
c0 84 108 77 -1188 77 -1139 0 -1152 0 -1172 -20z m1299 -100 c-760 -4 -949
-8 -962 -18 -13 -11 -21 -11 -46 3 -17 8 -31 18 -31 20 0 3 447 4 993 3 l992
-3 -946 -5z m-1024 -138 l120 -70 3 -1257 c1 -691 -2 -1255 -6 -1253 -5 1 -72
39 -150 83 l-142 80 0 1258 0 1258 28 -15 c15 -8 81 -46 147 -84z m2393 -1359
l2 -1263 -1080 0 -1080 0 0 1258 c0 692 3 1262 7 1265 3 4 488 6 1077 5 l1071
-3 3 -1262z"/>
<path d="M270 2652 c-40 -12 -40 -10 -40 -739 l0 -703 100 -66 c110 -72 144
-79 167 -34 10 19 13 178 13 700 0 371 -3 685 -6 697 -4 14 -40 44 -98 81
-101 65 -114 71 -136 64z m103 -176 c16 -12 17 -54 17 -625 l0 -611 -25 16
-25 16 0 609 c0 335 3 609 8 609 4 0 15 -7 25 -14z"/>
<path d="M281 694 c-26 -18 -51 -71 -51 -107 0 -85 71 -198 137 -216 47 -13
96 7 117 48 54 103 -39 291 -142 291 -21 0 -48 -7 -61 -16z"/>
<path d="M1610 2346 c-235 -64 -374 -309 -299 -528 46 -136 155 -326 310 -546
49 -69 86 -112 97 -112 9 0 32 23 51 50 19 28 37 50 41 50 4 0 17 -12 31 -26
92 -101 274 -95 368 11 46 53 61 94 61 167 0 70 -22 124 -70 176 -45 47 -85
64 -159 67 -90 3 -130 -8 -177 -51 -21 -19 -32 -32 -24 -28 13 7 13 5 1 -9 -7
-9 -17 -14 -22 -11 -5 3 -6 -1 -3 -9 3 -8 0 -18 -7 -23 -8 -5 -10 -3 -5 7 4 8
1 6 -8 -5 -20 -25 -30 -95 -22 -163 6 -48 4 -58 -18 -83 -13 -16 -26 -35 -29
-42 -7 -18 -29 10 -142 177 -107 161 -193 320 -225 419 -41 127 -11 253 87
357 210 225 593 107 642 -199 12 -74 -3 -145 -53 -255 l-35 -77 28 0 c25 0 32
7 58 68 50 112 66 191 53 264 -31 171 -140 299 -299 348 -71 22 -163 25 -231
6z m505 -758 c72 -37 108 -96 108 -179 0 -85 -37 -140 -118 -179 -68 -33 -165
-19 -225 32 -29 24 -61 86 -62 122 -1 22 -5 33 -12 29 -6 -3 -5 0 2 8 6 7 12
22 12 34 0 20 31 78 53 99 44 41 119 67 172 59 17 -3 48 -14 70 -25z"/>
<path d="M2040 1431 l-65 -69 -32 30 c-19 19 -38 28 -47 25 -26 -10 -18 -30
29 -77 l45 -44 89 85 c91 86 110 119 69 119 -15 0 -45 -24 -88 -69z"/>
<path d="M1637 2170 c-16 -5 -48 -24 -73 -42 -110 -83 -129 -251 -38 -356 54
-63 105 -86 189 -86 110 0 184 48 231 148 75 160 -48 348 -226 345 -30 0 -68
-5 -83 -9z m171 -59 c47 -24 66 -45 91 -101 25 -56 26 -103 2 -155 -50 -108
-171 -154 -271 -102 -68 34 -103 85 -108 156 -2 32 1 74 7 93 13 38 60 89 106
112 42 22 127 20 173 -3z"/>
</g>
</svg>
